<svg xmlns="http://www.w3.org/2000/svg" width="15.217" height="18.736" viewBox="0 0 15.217 18.736"><defs><style>.a{fill:#6a717e;}</style></defs><path class="a" d="M222.837,154.7a.439.439,0,0,0-.439.439v8.293a.439.439,0,1,0,.878,0v-8.293A.439.439,0,0,0,222.837,154.7Zm0,0" transform="translate(-212.639 -147.915)"/><path class="a" d="M104.837,154.7a.439.439,0,0,0-.439.439v8.293a.439.439,0,1,0,.878,0v-8.293A.439.439,0,0,0,104.837,154.7Zm0,0" transform="translate(-99.817 -147.915)"/><path class="a" d="M1.243,5.577V16.387a2.421,2.421,0,0,0,.644,1.67,2.161,2.161,0,0,0,1.568.678h8.3a2.16,2.16,0,0,0,1.568-.678,2.421,2.421,0,0,0,.644-1.67V5.577a1.676,1.676,0,0,0-.43-3.3H11.291V1.732A1.724,1.724,0,0,0,9.554,0h-3.9A1.724,1.724,0,0,0,3.92,1.732V2.28H1.673a1.676,1.676,0,0,0-.43,3.3ZM11.756,17.857h-8.3a1.39,1.39,0,0,1-1.334-1.47V5.615H13.09V16.387a1.39,1.39,0,0,1-1.334,1.47ZM4.8,1.732a.845.845,0,0,1,.86-.856h3.9a.845.845,0,0,1,.86.856V2.28H4.8ZM1.673,3.158H13.538a.79.79,0,1,1,0,1.58H1.673a.79.79,0,1,1,0-1.58Zm0,0" transform="translate(0.003 0.002)"/><path class="a" d="M163.837,154.7a.439.439,0,0,0-.439.439v8.293a.439.439,0,1,0,.878,0v-8.293A.439.439,0,0,0,163.837,154.7Zm0,0" transform="translate(-156.228 -147.915)"/></svg>