<svg xmlns="http://www.w3.org/2000/svg" width="15.476" height="15.476" viewBox="0 0 15.476 15.476"><defs><style>.a{fill:#6a717e;}</style></defs><path class="a" d="M96.572,2.052l-9.334,9.334a.587.587,0,0,0-.153.268l-.8,3.085a.589.589,0,0,0,.718.718l3.085-.8a.589.589,0,0,0,.268-.154l9.334-9.334h0l1.879-1.879a.588.588,0,0,0,0-.832L99.284.172a.588.588,0,0,0-.832,0L96.573,2.051h0Zm-6.936,11.5-1.961.509.509-1.961,8.8-8.8L98.44,4.752ZM98.868,1.421l1.452,1.452L99.273,3.92,97.821,2.468Z" transform="translate(-86.265 0)"/></svg>