<svg xmlns="http://www.w3.org/2000/svg" width="19" height="19" viewBox="0 0 19 19"><defs><style>.a{fill:#949ca5;}</style></defs><path class="a" d="M16.218,2.782A9.5,9.5,0,0,0,2.782,16.218,9.5,9.5,0,0,0,16.218,2.782ZM9.5,17.887A8.387,8.387,0,1,1,17.887,9.5,8.4,8.4,0,0,1,9.5,17.887Z"/><path class="a" d="M178.855,115.784l-6.938-4.681a.612.612,0,0,0-.6-.043.537.537,0,0,0-.315.481V120.9a.537.537,0,0,0,.315.481.613.613,0,0,0,.6-.043l6.938-4.681a.52.52,0,0,0,0-.876Zm-6.7,4.063V112.6l5.372,3.625Z" transform="translate(-164.825 -106.722)"/></svg>